<?xml version="1.0" encoding="UTF-8" standalone="no"?><!DOCTYPE svg PUBLIC "-//W3C//DTD SVG 1.1//EN" "http://www.w3.org/Graphics/SVG/1.1/DTD/svg11.dtd"><svg width="100%" height="100%" viewBox="0 0 1024 1024" version="1.1" xmlns="http://www.w3.org/2000/svg" xmlns:xlink="http://www.w3.org/1999/xlink" xml:space="preserve" xmlns:serif="http://www.serif.com/" style="fill-rule:evenodd;clip-rule:evenodd;stroke-linejoin:round;stroke-miterlimit:2;"><rect id="icon-round-square" x="0" y="0" width="1024" height="1024" style="fill:white;"/><g id="icon-round-square1" serif:id="icon-round-square"><g transform="matrix(1.58137,0,0,1.94583,-3396.78,0)"><rect x="2148" y="0" width="647.541" height="526.254" style="fill:none;"/><clipPath id="_clip1"><rect x="2148" y="0" width="647.541" height="526.254"/></clipPath><g clip-path="url(#_clip1)"><g transform="matrix(2.9374,-0.988818,1.21671,2.38722,-13519.7,4648.87)"><circle cx="5288.05" cy="360.097" r="381.874" style="fill:none;"/><clipPath id="_clip2"><circle cx="5288.05" cy="360.097" r="381.874"/></clipPath><g clip-path="url(#_clip2)"><g transform="matrix(-0.166667,-0.288675,0.288675,-0.166667,5931.79,2023.81)"><circle cx="5288.05" cy="360.097" r="381.874" style="fill:rgb(0,136,255);"/></g><g transform="matrix(-0.166667,0.288675,-0.288675,-0.166667,6407,-1029.25)"><circle cx="5288.05" cy="360.097" r="381.874" style="fill:rgb(52,199,89);"/></g><g transform="matrix(0.333333,2.77556e-17,1.38778e-17,0.333333,3525.37,85.7319)"><circle cx="5288.05" cy="360.097" r="381.874" style="fill:rgb(255,56,60);"/></g></g></g></g></g></g></svg>