<?xml version="1.0" encoding="UTF-8" standalone="no"?>
<!DOCTYPE svg PUBLIC "-//W3C//DTD SVG 1.1//EN" "http://www.w3.org/Graphics/SVG/1.1/DTD/svg11.dtd">
<svg width="100%" height="100%" viewBox="0 0 1024 1024" version="1.1" xmlns="http://www.w3.org/2000/svg" xmlns:xlink="http://www.w3.org/1999/xlink" xml:space="preserve" xmlns:serif="http://www.serif.com/" style="fill-rule:evenodd;clip-rule:evenodd;stroke-linejoin:round;stroke-miterlimit:2;">
    <g transform="matrix(1,0,0,1,-1074,-3222)">
        <g id="nitmic-logomark-floating_light-gray" transform="matrix(1,0,0,1,0,3222)">
            <rect x="1074" y="0" width="1024" height="1024" style="fill:none;"/>
            <clipPath id="_clip1">
                <rect x="1074" y="0" width="1024" height="1024"/>
            </clipPath>
            <g clip-path="url(#_clip1)">
                <g transform="matrix(1.6,0,0,1.6,-4388.4,-307.2)">
                    <path d="M3734,192C4054,192 4054,192 4054,512C4054,832 4054,832 3734,832C3414,832 3414,832 3414,512C3414,192 3414,192 3734,192Z" style="fill:none;"/>
                    <clipPath id="_clip2">
                        <path d="M3734,192C4054,192 4054,192 4054,512C4054,832 4054,832 3734,832C3414,832 3414,832 3414,512C3414,192 3414,192 3734,192Z"/>
                    </clipPath>
                    <g clip-path="url(#_clip2)">
                        <g transform="matrix(0.988355,0,0,1.21614,1291.01,192)">
                            <g id="modern-dark-gray">
                                <rect x="2148" y="0" width="647.541" height="526.254" style="fill:none;"/>
                                <clipPath id="_clip3">
                                    <rect x="2148" y="0" width="647.541" height="526.254"/>
                                </clipPath>
                                <g clip-path="url(#_clip3)">
                                    <g transform="matrix(2.9374,-0.988818,1.21671,2.38722,-13519.7,4648.87)">
                                        <circle cx="5288.05" cy="360.097" r="381.874" style="fill:none;"/>
                                        <clipPath id="_clip4">
                                            <circle cx="5288.05" cy="360.097" r="381.874"/>
                                        </clipPath>
                                        <g clip-path="url(#_clip4)">
                                            <g transform="matrix(0.333333,5.55112e-17,2.77556e-17,0.333333,3525.37,85.7319)">
                                                <circle cx="5288.05" cy="360.097" r="381.874" style="fill:white;"/>
                                            </g>
                                            <g transform="matrix(-0.166667,-0.288675,0.288675,-0.166667,5931.79,2023.81)">
                                                <circle cx="5288.05" cy="360.097" r="381.874" style="fill:white;"/>
                                            </g>
                                            <g transform="matrix(-0.166667,0.288675,-0.288675,-0.166667,6407,-1029.25)">
                                                <circle cx="5288.05" cy="360.097" r="381.874" style="fill:white;"/>
                                            </g>
                                        </g>
                                    </g>
                                </g>
                            </g>
                        </g>
                    </g>
                </g>
            </g>
        </g>
    </g>
</svg>
